HIERARCHY
ROOT root
{
	OFFSET 0.000000 0.000000 0.000000
	CHANNELS 6 Xposition Yposition Zposition Zrotation Yrotation Xrotation
	JOINT lhip
	{
		OFFSET 0.058581 -0.082280 -0.017664
		CHANNELS 3 Zrotation Yrotation Xrotation
		JOINT lknee
		{
			OFFSET 0.043451 -0.386469 0.008037
			CHANNELS 3 Zrotation Yrotation Xrotation
			JOINT lankle
			{
				OFFSET -0.014790 -0.426874 -0.037428
				CHANNELS 3 Zrotation Yrotation Xrotation
				JOINT ltoe
				{
					OFFSET 0.041054 -0.060286 0.122042
					CHANNELS 3 Zrotation Yrotation Xrotation
					End Site
					{
						OFFSET 0.000000 0.000000 0.000000
					}
				}
			}
		}
	}
	JOINT rhip
	{
		OFFSET -0.060310 -0.090513 -0.013543
		CHANNELS 3 Zrotation Yrotation Xrotation
		JOINT rknee
		{
			OFFSET -0.043257 -0.383688 -0.004843
			CHANNELS 3 Zrotation Yrotation Xrotation
			JOINT rankle
			{
				OFFSET 0.019056 -0.420046 -0.034562
				CHANNELS 3 Zrotation Yrotation Xrotation
				JOINT rtoe
				{
					OFFSET -0.034840 -0.062106 0.130323
					CHANNELS 3 Zrotation Yrotation Xrotation
					End Site
					{
						OFFSET 0.000000 0.000000 0.000000
					}
				}
			}
		}
	}
	JOINT lowerback
	{
		OFFSET 0.004439 0.124404 -0.038385
		CHANNELS 3 Zrotation Yrotation Xrotation
		JOINT upperback
		{
			OFFSET 0.004488 0.137956 0.026820
			CHANNELS 3 Zrotation Yrotation Xrotation
			JOINT chest
			{
				OFFSET -0.002265 0.056032 0.002855
				CHANNELS 3 Zrotation Yrotation Xrotation
				JOINT lowerneck
				{
					OFFSET -0.013390 0.211636 -0.033468
					CHANNELS 3 Zrotation Yrotation Xrotation
					JOINT upperneck
					{
						OFFSET 0.010113 0.088937 0.050410
						CHANNELS 3 Zrotation Yrotation Xrotation
						End Site
						{
							OFFSET 0.000000 0.000000 0.000000
						}
					}
				}
				JOINT lclavicle
				{
					OFFSET 0.071702 0.114000 -0.018898
					CHANNELS 3 Zrotation Yrotation Xrotation
					JOINT lshoulder
					{
						OFFSET 0.122921 0.045205 -0.019046
						CHANNELS 3 Zrotation Yrotation Xrotation
						JOINT lelbow
						{
							OFFSET 0.255332 -0.015649 -0.022946
							CHANNELS 3 Zrotation Yrotation Xrotation
							JOINT lwrist
							{
								OFFSET 0.265709 0.012698 -0.007375
								CHANNELS 3 Zrotation Yrotation Xrotation
								End Site
								{
									OFFSET 0.000000 0.000000 0.000000
								}
							}
						}
					}
				}
				JOINT rclavicle
				{
					OFFSET -0.082954 0.112472 -0.023707
					CHANNELS 3 Zrotation Yrotation Xrotation
					JOINT rshoulder
					{
						OFFSET -0.113228 0.046853 -0.008472
						CHANNELS 3 Zrotation Yrotation Xrotation
						JOINT relbow
						{
							OFFSET -0.260127 -0.014369 -0.031269
							CHANNELS 3 Zrotation Yrotation Xrotation
							JOINT rwrist
							{
								OFFSET -0.269108 0.006794 -0.006027
								CHANNELS 3 Zrotation Yrotation Xrotation
								End Site
								{
									OFFSET 0.000000 0.000000 0.000000
								}
							}
						}
					}
				}
			}
		}
	}
}
MOTION
Frames: 13
Frame Time: 0.033333
0.541529 0.774634 0.982970 -87.199772 2.215320 87.126952 1.602992 -1.202437 3.497075 -2.689505 -15.051365 3.619369 7.133169 8.517495 -17.657850 0.000000 -0.000000 0.000000 2.004620 -2.529345 2.530444 3.851583 2.804792 6.601586 1.439935 -2.843988 -13.761152 0.000000 -0.000000 0.000000 -0.658898 1.353951 5.917740 0.976811 -2.555268 0.215339 1.096052 -0.969610 2.164922 2.779403 4.704769 12.554135 4.680175 4.014639 4.034945 -26.121785 3.388270 5.101113 -63.672686 -5.332706 7.466520 11.071690 -23.923368 5.690049 -3.397094 -0.283818 -8.943995 21.940694 -2.193974 5.221375 63.606597 0.981396 11.579605 -13.764400 27.035449 3.060755 7.777243 1.371761 -8.128692 
0.539612 0.775025 0.983036 -87.413550 2.092468 87.152398 1.431558 -1.056259 3.669627 -2.403493 -14.773873 3.497898 7.112811 8.103226 -17.791540 0.000000 -0.000000 0.000000 1.831124 -2.445540 2.667816 3.780598 2.554246 6.663280 1.674169 -2.421721 -13.648060 0.000000 -0.000000 0.000000 -0.797470 1.660223 5.753937 0.929575 -2.347302 0.463277 1.042803 -0.833560 1.895471 3.174390 4.725222 12.360703 4.539998 3.864453 3.795278 -25.850605 3.166992 5.059523 -64.043963 -5.748619 7.864479 11.494878 -27.058310 5.171945 -3.173825 -0.198542 -9.765641 21.656595 -2.486915 4.859115 63.204986 2.450823 9.397448 -17.307215 28.468027 -3.887581 7.418941 0.759294 -11.714932 
0.536534 0.775534 0.982929 -87.519517 2.052154 86.901266 1.426644 -0.664431 4.291939 -2.268792 -14.874537 3.257074 7.045626 7.893293 -17.893605 0.000000 -0.000000 0.000000 1.830430 -2.530815 3.225436 3.633748 2.509149 6.572542 1.732881 -2.221559 -13.950023 0.000000 -0.000000 0.000000 -0.986052 1.756819 5.498260 0.947691 -2.289459 0.922849 1.077346 -0.673142 1.792246 3.548491 4.557176 12.559114 4.714608 3.857707 3.640124 -25.908802 3.211330 4.809538 -63.930104 -6.165138 8.115722 11.775046 -30.262142 5.061417 -2.800490 -0.439642 -9.978414 21.344410 -2.293289 4.709193 63.315153 2.586283 9.273442 -17.999599 30.977498 -4.968021 7.367119 0.938955 -12.580247 
0.535152 0.775723 0.982806 -87.247696 2.096408 86.887861 1.461802 -0.873875 4.273792 -2.240375 -14.868565 3.479707 7.032978 7.801132 -18.018129 0.000000 -0.000000 0.000000 2.007504 -2.495552 3.150551 3.470286 2.231679 7.052440 1.652945 -2.213598 -14.279380 0.000000 -0.000000 0.000000 -1.043557 1.663836 5.467950 0.928142 -2.372048 0.925715 1.022683 -0.618049 1.774655 3.779057 4.510127 12.619305 4.899796 3.916183 3.516165 -25.667816 3.171967 4.733901 -64.110636 -6.685582 8.462829 12.160361 -33.563288 4.895068 -2.331476 -0.766483 -10.817558 21.174403 -2.388859 4.341023 63.641367 2.939029 9.278553 -18.777799 33.440255 -5.911380 7.169616 1.283514 -13.555685 
0.534051 0.775835 0.982672 -87.257849 2.136979 86.990110 1.532622 -1.032197 4.281930 -2.197631 -14.650886 3.371910 7.188313 7.773008 -18.075386 0.000000 -0.000000 0.000000 2.078434 -2.322567 3.165828 3.450417 2.095873 7.020521 1.707194 -2.187312 -14.166861 0.000000 -0.000000 0.000000 -1.122255 1.629840 5.190044 0.950880 -2.373723 1.011227 1.023857 -0.521178 1.812577 3.999087 4.446359 12.523521 5.022232 3.875532 3.580632 -25.503711 3.194002 4.739709 -64.224041 -6.968048 8.748531 12.384537 -35.220502 4.879102 -2.520129 -1.256206 -11.139055 21.124526 -2.339702 4.278131 63.852447 3.313726 9.368076 -19.159485 34.121773 -6.143063 7.941734 2.029650 -13.784700 
0.532627 0.776182 0.982686 -87.082800 2.181374 87.147858 1.631062 -1.129755 4.166511 -2.259438 -14.736552 3.454966 7.101414 7.702984 -18.114289 0.000000 -0.000000 0.000000 2.191650 -2.423320 3.248414 3.384303 2.040146 6.794532 1.716930 -2.194217 -14.173874 0.000000 -0.000000 0.000000 -1.342884 1.561550 5.020075 0.981118 -2.489486 0.889609 1.081010 -0.519019 1.783600 4.248473 4.385662 12.410908 5.192164 3.808347 3.590716 -25.238465 3.346671 4.612618 -64.407096 -7.153208 9.011639 12.312201 -36.774883 5.176449 -1.884436 -1.444621 -11.273829 21.088301 -2.375118 4.137949 64.213156 3.296777 9.543807 -19.239731 35.085873 -6.053302 7.521675 2.170108 -13.966753 
0.530553 0.776247 0.982633 -87.219184 2.198697 87.186875 1.638823 -1.132735 4.405613 -2.187919 -14.740300 3.214826 7.148908 7.870509 -18.143772 0.000000 -0.000000 0.000000 2.197756 -2.548969 3.390412 3.357504 2.159506 6.704733 1.777739 -2.101260 -14.197809 0.000000 -0.000000 0.000000 -1.501242 1.663296 4.912732 1.010855 -2.476520 0.814860 1.160949 -0.638751 1.748131 4.445040 4.435416 12.248409 5.371429 3.824668 3.518674 -25.230237 3.356311 4.796964 -64.331876 -7.188944 9.042043 12.389813 -38.000771 5.069043 -1.523929 -1.419324 -11.640132 21.190874 -2.315438 4.275122 64.388534 3.394645 9.691049 -19.138073 35.572067 -5.733616 6.774530 2.249689 -13.735069 
0.529150 0.776284 0.982478 -87.366220 2.235599 87.343019 1.691253 -1.281465 4.439328 -2.223834 -14.620447 3.053648 7.327709 8.099973 -18.081101 0.000000 -0.000000 0.000000 2.247012 -2.374922 3.372023 3.400307 2.240763 6.560839 1.657230 -2.211116 -14.113033 0.000000 -0.000000 0.000000 -1.603557 1.689615 4.726058 1.023567 -2.434645 0.767180 1.154469 -0.642227 1.748390 4.586543 4.357352 12.216921 5.603521 3.857234 3.362686 -25.064804 3.358554 4.810862 -64.369427 -7.280430 9.207309 12.257696 -37.892563 5.494798 -1.908545 -1.542871 -11.791283 21.066021 -2.224138 4.313478 64.887738 3.012836 10.149926 -18.474050 35.307085 -4.629587 7.724598 1.463755 -14.039176 
0.528050 0.776410 0.982225 -87.547770 2.300741 87.525912 1.775543 -1.403697 4.408994 -2.264934 -14.550383 2.965623 7.416378 8.276554 -18.166146 0.000000 -0.000000 0.000000 2.262789 -2.337578 3.260183 3.503640 2.294586 6.632790 1.672088 -2.237638 -14.087858 0.000000 -0.000000 0.000000 -1.672799 1.631656 4.752854 0.992246 -2.410371 0.404974 1.198354 -0.643383 1.798941 4.867218 4.355941 11.929542 5.768207 3.748047 3.450183 -25.011914 3.546862 4.764453 -64.234303 -7.161988 9.175814 11.926213 -37.394608 5.911946 -2.126648 -1.653200 -11.581464 21.339461 -2.179786 4.360181 64.851545 3.206082 10.362553 -17.689564 34.069210 -3.274768 7.744733 1.982323 -12.776002 
0.525665 0.776507 0.982201 -88.012018 2.282055 87.293943 1.756550 -1.116938 5.063544 -2.212689 -14.571007 2.605684 7.409275 8.452890 -18.098564 0.000000 -0.000000 0.000000 2.217308 -2.404211 3.792126 3.494083 2.682857 6.355466 1.638968 -2.191036 -14.076991 0.000000 -0.000000 0.000000 -1.927053 1.861484 4.676402 1.017739 -2.407538 0.820335 1.328485 -0.590135 1.701820 5.061624 4.360411 12.036811 6.054344 3.839289 3.190715 -25.022798 3.309228 4.976463 -64.124152 -6.939532 8.970562 11.927424 -35.834648 5.903517 -2.208819 -1.606052 -11.363755 21.434214 -1.936114 4.619237 64.970983 2.781613 10.540175 -16.644866 32.730792 -1.862906 8.251189 1.486536 -12.119739 
0.525249 0.776437 0.981799 -87.904723 2.416416 87.497612 1.955215 -1.236243 4.675203 -2.423418 -14.610516 3.006896 7.531318 8.544614 -18.266107 0.000000 -0.000000 0.000000 2.390086 -2.463022 3.549857 3.503863 2.769669 6.476563 1.525991 -2.383003 -14.071547 0.000000 -0.000000 0.000000 -1.961640 1.739347 4.557177 1.101111 -2.533385 0.788900 1.395823 -0.647331 1.875175 5.237712 4.359747 11.873645 6.267140 3.802119 3.069145 -24.910321 3.280090 5.134208 -64.228458 -6.886282 8.821183 11.839000 -33.949466 6.007927 -2.307805 -1.624023 -11.439929 21.442533 -1.761457 4.767902 65.210723 2.730068 10.617095 -16.044611 30.900542 -0.996655 8.172568 1.331304 -11.860729 
0.524355 0.776254 0.981669 -88.099038 2.479086 87.502769 2.080051 -1.093044 4.786147 -2.542779 -14.632556 2.903157 7.700954 8.679151 -18.276965 0.000000 -0.000000 0.000000 2.465918 -2.312136 3.620907 3.505862 2.888088 6.416202 1.477189 -2.466656 -14.214321 0.000000 -0.000000 0.000000 -1.970871 1.726154 4.434264 1.125177 -2.493287 1.123992 1.422339 -0.596890 1.881323 5.426729 4.325191 11.877634 6.451800 3.822514 2.821117 -24.823190 3.282851 5.255169 -64.358666 -6.709362 8.586403 11.974395 -31.798603 6.055588 -2.688124 -1.153375 -11.023850 21.480365 -1.659179 4.846280 65.465546 2.453261 10.506594 -15.669140 28.927571 -0.636282 8.486204 0.807485 -11.743394 
0.523929 0.775914 0.981485 -88.173935 2.498204 87.542033 2.034112 -1.077581 4.709917 -2.522779 -14.712871 3.070837 7.709088 8.812299 -18.385586 0.000000 -0.000000 0.000000 2.498451 -2.200777 3.545850 3.492084 2.946526 6.550516 1.378789 -2.622302 -14.330742 0.000000 -0.000000 0.000000 -1.959308 1.616585 4.568614 1.148545 -2.578952 1.094092 1.414215 -0.640983 1.883964 5.714594 4.305508 11.788521 6.668000 3.873284 2.597573 -24.913461 3.377528 5.512760 -64.326492 -6.325220 8.316600 12.272384 -29.833894 5.946665 -3.492738 -0.914638 -10.962856 21.486067 -1.796910 4.908147 65.611857 2.263376 10.370563 -15.244714 26.649782 -0.250658 8.986463 0.247291 -11.658367 
